<?xml version="1.0" encoding="utf-8"?>
<!-- Generator: Adobe Illustrator 18.1.1, SVG Export Plug-In . SVG Version: 6.00 Build 0)  -->
<svg version="1.1" id="Layer_1" xmlns="http://www.w3.org/2000/svg" xmlns:xlink="http://www.w3.org/1999/xlink" x="0px" y="0px"
	 viewBox="0 275.6 612 516.4" enable-background="new 0 275.6 612 516.4" xml:space="preserve">
<g id="Layer_1_1_">
	<g id="Layer_3">
		<path display="none" d="M387.5,397.9h-61.2c24.7-8.4,42.4-31.8,42.4-59.3c0-34.7-28.1-62.8-62.8-62.8c-34.6,0-62.7,28.1-62.7,62.8
			c0,27.5,17.8,51,42.4,59.3h-69.5v0.7c-36.9,4.1-65.5,26.3-65.5,54.4v126.1c0,13.1,10.7,23.8,23.8,23.8s23.8-10.7,23.8-23.8V444.6
			h27v254c0,77.7,15.2,93,34,93s34-15.2,34-34V606.7h25.4v143.5c-0.5,2.4-0.8,4.9-0.8,7.5c0,18.9,15.3,34.2,34.2,34.2
			c18.9,0,34.2-15.4,34.2-34.2c0-0.1,0-0.2,0-0.2l0.4-59v-254h27V579c0,13.1,10.7,23.8,23.8,23.8c13.1,0,23.8-10.7,23.8-23.8V452.9
			C461.3,421.4,428.2,397.9,387.5,397.9z"/>
		
			<linearGradient id="SVGID_1_" gradientUnits="userSpaceOnUse" x1="0.8247" y1="-0.2652" x2="0.8247" y2="-0.2552" gradientTransform="matrix(370.9687 0 0 516.1801 0 665.5438)">
			<stop  offset="0" style="stop-color:#F9ABBE"/>
			<stop  offset="1" style="stop-color:#F97797"/>
		</linearGradient>
		<path fill="url(#SVGID_1_)" d="M491.5,549.9l-45.6-96.3c-19.9-46.9-42.4-54-85.5-54l-37.3-0.6c30.8-8.3,52.4-39.5,45-74.2
			c-4.9-23.4-23.1-42-46.4-47.4c-41.1-9.6-77.7,21.4-77.7,61c0,28.3,18.8,52.2,44.5,60.1l-31.9-0.5c-48.1,0-69.5,4.7-93.8,58.1
			l-42.1,90c-0.2,1.3-0.3,2.6-0.3,4c0,13.9,11.3,25.2,25.3,25.2c9.7,0,18.2-5.7,22.4-13.7l50.6-109.2c0.5-1.7,2.1-2.9,3.9-2.9h11.1
			c3.4,0,6,3.3,5,6.6L168,623.6c-1.7,5.9,2.7,11.9,8.9,11.9h58.2v122.4c0,18.7,13.6,33.8,30.3,33.8s30.3-15.2,30.3-33.8V635.4h22.1
			v115.2c0,2.4-0.6,4.8-0.6,7.4c0,18.8,13.7,34,30.5,34s30.5-15.4,30.5-34.2c0-0.1,0,0.4,0-0.4h0.2v-122h57.9
			c6.6,0,11.5-6.4,9.6-12.8L371.4,456c-1-3.3,1.5-6.6,4.9-6.6h11.4c2.1,0,4,1.4,4.7,3.4L442,557.2c0,0.1,2.1,5.1,2.1,5.1
			c4.3,7.6,12.6,12.9,22,12.9C480.2,575.1,491.5,563.9,491.5,549.9z"/>
	</g>
</g>
<g id="Layer_4" display="none">
	<path display="inline" d="M585.8,666.3H26.2C11.7,666.3,0,677.9,0,692.4v388.2c0,14.5,11.7,26.2,26.2,26.2h243.9l-6.4,27.9h-59.5
		c-10.3,0-20,5-26,13.4l-15.8,22.2c-3.1,4.3,0,10.3,5.3,10.3h276.5c5.2,0,8.4-5.8,5.4-10.2l-14.7-21.7c-6-8.8-15.8-14-26.4-14h-59.9
		l-6.1-27.9h243.2c14.5,0,26.2-11.7,26.2-26.2V692.4C612,677.9,600.3,666.3,585.8,666.3z"/>
	<path display="inline" d="M248.2,667.1H32c-17.7,0-32,14.3-32,32v449.6c0,17.7,14.3,32,32,32h216.1c17.7,0,32-14.3,32-32V699.1
		C280.2,681.4,265.9,667.1,248.2,667.1z M140.1,1153.4c-11.6,0-20.9-9.3-20.9-20.9c0-11.6,9.3-20.9,20.9-20.9s20.9,9.2,20.9,20.9
		C161.1,1144.2,151.6,1153.4,140.1,1153.4z M255.1,1089.2H24.8c-1.2,0-2.3-1.2-2.3-2.5c0-1.2,1-2.5,2.3-2.5h230.4
		c1.2,0,2.3,1.2,2.3,2.5C257.5,1087.8,256.4,1089.2,255.1,1089.2z"/>
</g>
<g id="Layer_5" display="none">
	<path display="inline" d="M517.3,1140.3l-65.1-329.8c-3.9-20.1-21.4-34.4-41.8-34.4h-53.2c-2.7-57.3-49.9-111-107.8-111
		s-105.2,53.7-107.9,111H99.1c-20.8,0-38.6,14.9-42,35.5L0.2,1141.2c-3.5,20.8,12.5,39.7,33.6,39.7h449.9
		C505.2,1180.8,521.3,1161.3,517.3,1140.3z M249.4,691.1c43.6,0,79.1,42.2,81.8,85H167.5C170.2,733.3,205.8,691.1,249.4,691.1z
		 M156.5,886.6c-11.3,0-20.5-9.2-20.5-20.5s9.2-20.5,20.5-20.5s20.5,9.2,20.5,20.5S167.8,886.6,156.5,886.6z M341.6,886.6
		c-11.3,0-20.5-9.2-20.5-20.5s9.2-20.5,20.5-20.5s20.5,9.2,20.5,20.5S352.9,886.6,341.6,886.6z"/>
	<path display="inline" d="M526.2,1129.9h-15.3c4-3.3,6.9-7.9,6.9-13.7c0,0-0.2-185.4-0.2-185.7c0-34.9-16.5-65.5-41.5-82.5
		l-0.2-0.1v-67.5c0-23.2-12-43.1-29.4-51.9h-0.1v-36.1l0.4,0.2h6.5c6.6,0,12-6.1,12-13.8c-0.1-7.5-5.8-13.3-12.4-13.3h-84.4
		c-6.6,0-12,6.1-12,13.8c0.1,7.5,5.8,13.3,12.4,13.3h7.1l0.7-0.2v27.7h-0.3c-17,7.6-29.2,26.7-29.2,48.7c0,4.1,0.1,12.1,0.1,12.1
		V903H313v-14.4c0-16.6-11.7-29.8-26.3-29.8h-36.9c-14.6,0-26.9,13.1-26.9,29.8V903h-29.5c0,0-0.1-130.1-0.1-134.2
		c0-22-13.6-41-30.6-48.6l-0.4-0.2v-27.6l0.9,0.2h7.1c6.6,0,12.3-5.7,12.4-13.3c0.1-7.6-5.3-13.8-12-13.8H86.4
		c-6.6,0-12.3,5.7-12.4,13.3s5.3,13.8,12,13.8h6.5l0.2-0.2v36.1h-0.1c-17.6,8.8-29.5,28.7-29.5,51.9v67.5l0,0
		C38,865,21.6,895.6,21.6,930.5c0,0.4-0.3,185.7-0.3,185.7c0,5.7,3,10.4,7,13.7H13c-7.2,0-13,6.6-13,14.8v21.1
		c0,8.2,5.8,14.9,13,14.9h191.4c7.2,0,13.5-6.7,13.5-14.9v-21c0-8.2-6.4-14.8-13.5-14.8h-18.6c4-3.3,7.5-7.9,7.5-13.7v-100.2h29.5
		v10.5c0,16.6,12.2,30.4,26.9,30.4h36.9c14.6,0,26.3-13.8,26.3-30.4V1016h34.4v100.2c0,5.7,2.1,10.4,6.1,13.7h-18.6
		c-7.2,0-13.7,6.6-13.7,14.8v21.1c0,8.2,6.6,14.9,13.7,14.9h191.4c7.2,0,13.7-6.7,13.7-14.9v-21
		C539.9,1136.7,533.4,1129.9,526.2,1129.9z"/>
</g>
</svg>
