<?xml version="1.0" encoding="utf-8"?>
<!-- Generator: Adobe Illustrator 18.1.1, SVG Export Plug-In . SVG Version: 6.00 Build 0)  -->
<svg version="1.1" id="Layer_1" xmlns="http://www.w3.org/2000/svg" xmlns:xlink="http://www.w3.org/1999/xlink" x="0px" y="0px"
	 viewBox="0 252.5 612 515.3" enable-background="new 0 252.5 612 515.3" xml:space="preserve">
<g id="Layer_1_1_" display="none">
	<g id="Layer_3" display="inline">
		<path display="none" d="M267,374.6h-61.2c24.7-8.4,42.4-31.8,42.4-59.3c0-34.7-28.1-62.8-62.8-62.8c-34.6,0-62.7,28.1-62.7,62.8
			c0,27.5,17.8,51,42.4,59.3H95.8v0.7c-36.9,4.1-65.5,26.3-65.5,54.4v126.2c0,13.1,10.7,23.8,23.8,23.8s23.8-10.7,23.8-23.8V421.3
			h27v254c0,77.7,15.2,93,34,93s34-15.2,34-34V583.5h25.4V727c-0.5,2.4-0.8,4.9-0.8,7.5c0,18.9,15.3,34.2,34.2,34.2
			s34.2-15.4,34.2-34.2c0-0.1,0-0.2,0-0.2l0.4-59v-254h27v134.5c0,13.1,10.7,23.8,23.8,23.8s23.8-10.7,23.8-23.8V429.6
			C340.8,398.2,307.7,374.6,267,374.6z"/>
		<path d="M371,526.7l-45.6-96.3c-19.9-46.9-42.4-54-85.5-54l-37.3-0.6c30.8-8.3,52.4-39.5,45-74.2c-4.9-23.4-23.1-42-46.4-47.4
			c-41.1-9.6-77.7,21.4-77.7,61c0,28.3,18.8,52.2,44.5,60.1l-31.9-0.5c-48.1,0-69.5,4.7-93.8,58.1l-42.1,90c-0.2,1.3-0.3,2.6-0.3,4
			c0,13.9,11.3,25.2,25.3,25.2c9.7,0,18.2-5.7,22.4-13.7l50.6-109.2c0.5-1.7,2.1-2.9,3.9-2.9h11.1c3.4,0,6,3.3,5,6.6L47.5,600.4
			c-1.7,5.9,2.7,11.9,8.9,11.9h58.2v122.4c0,18.7,13.6,33.8,30.3,33.8s30.3-15.2,30.3-33.8V612.1h22.1v115.2c0,2.4-0.6,4.8-0.6,7.4
			c0,18.8,13.7,34,30.5,34s30.5-15.4,30.5-34.2c0-0.1,0,0.4,0-0.4h0.2v-122h57.9c6.6,0,11.5-6.4,9.6-12.8L251,432.7
			c-1-3.3,1.5-6.6,4.9-6.6h11.4c2.1,0,4,1.4,4.7,3.4l49.5,104.4c0,0.1,2.1,5.1,2.1,5.1c4.3,7.6,12.6,12.9,22,12.9
			C359.7,551.9,371,540.6,371,526.7z"/>
	</g>
</g>
<g id="Layer_4" display="none">
	<path display="inline" d="M585.8,253.2H26.2C11.7,253.2,0,264.9,0,279.4v388.3c0,14.5,11.7,26.2,26.2,26.2h243.9l-6.4,27.9h-59.5
		c-10.3,0-20,5-26,13.4l-15.8,22.2c-3.1,4.3,0,10.3,5.3,10.3h276.5c5.2,0,8.4-5.8,5.4-10.2l-14.7-21.7c-6-8.8-15.8-14-26.4-14h-59.9
		l-6.1-27.9h243.2c14.5,0,26.2-11.7,26.2-26.2V279.4C612,264.9,600.3,253.2,585.8,253.2z"/>
	<path display="inline" d="M248.2,254H32c-17.7,0-32,14.3-32,32v449.6c0,17.7,14.3,32,32,32h216.1c17.7,0,32-14.3,32-32V286.1
		C280.2,268.4,265.9,254,248.2,254z M140.1,740.4c-11.6,0-20.9-9.3-20.9-20.9c0-11.6,9.3-20.9,20.9-20.9s20.9,9.3,20.9,20.9
		C161.1,731.1,151.6,740.4,140.1,740.4z M255.1,676H24.8c-1.2,0-2.3-1.2-2.3-2.5c0-1.2,1-2.5,2.3-2.5h230.4c1.2,0,2.3,1.2,2.3,2.5
		C257.5,674.7,256.4,676,255.1,676z"/>
</g>
<g id="Layer_5">
	<path display="none" d="M517.3,727.2l-65.1-329.8c-3.9-20.1-21.4-34.4-41.8-34.4h-53.2c-2.7-57.3-49.9-111-107.8-111
		s-105.2,53.7-107.9,111H99.1c-20.8,0-38.6,14.9-42,35.5L0.2,728.1c-3.5,20.8,12.5,39.7,33.6,39.7h449.9
		C505.2,767.7,521.3,748.2,517.3,727.2z M249.4,278c43.6,0,79.1,42.2,81.8,85H167.5C170.2,320.2,205.8,278,249.4,278z M156.5,473.7
		c-11.3,0-20.5-9.2-20.5-20.5s9.2-20.5,20.5-20.5s20.5,9.2,20.5,20.5S167.8,473.7,156.5,473.7z M341.6,473.7
		c-11.3,0-20.5-9.2-20.5-20.5s9.2-20.5,20.5-20.5s20.5,9.2,20.5,20.5S352.9,473.7,341.6,473.7z"/>
	
		<linearGradient id="SVGID_1_" gradientUnits="userSpaceOnUse" x1="0.5669" y1="0.69" x2="0.5669" y2="0.7" gradientTransform="matrix(539.9036 0 0 515.2434 0 252.4605)">
		<stop  offset="0" style="stop-color:#D5A5FA"/>
		<stop  offset="1" style="stop-color:#C27AF9"/>
	</linearGradient>
	<path fill="url(#SVGID_1_)" d="M562.3,716.9H547c4-3.3,6.9-7.9,6.9-13.7c0,0-0.2-185.4-0.2-185.7c0-34.9-16.5-65.5-41.5-82.5
		l-0.2-0.1v-67.5c0-23.2-12-43.1-29.4-51.9h-0.1v-36.1l0.4,0.2h6.5c6.6,0,12-6.1,12-13.8c-0.1-7.5-5.8-13.3-12.4-13.3h-84.4
		c-6.6,0-12,6.1-12,13.8c0.1,7.5,5.8,13.3,12.4,13.3h7.1l0.7-0.2v27.7h-0.3c-17,7.6-29.2,26.7-29.2,48.7c0,4.1,0.1,12.1,0.1,12.1
		V490H349v-14.4c0-16.6-11.7-29.8-26.3-29.8h-36.9c-14.6,0-26.9,13.1-26.9,29.8V490h-29.5c0,0-0.1-130.1-0.1-134.2
		c0-22-13.6-41-30.6-48.6l-0.4-0.2v-27.6l0.9,0.2h7.1c6.6,0,12.3-5.7,12.4-13.3c0.1-7.6-5.3-13.8-12-13.8h-84.4
		c-6.6,0-12.3,5.7-12.4,13.3c-0.1,7.6,5.3,13.8,12,13.8h6.5l0.2-0.2v36.1h-0.1C111,324.3,99,344.3,99,367.4v67.5l0,0
		c-25.1,17.1-41.5,47.7-41.5,82.6c0,0.4-0.3,185.7-0.3,185.7c0,5.7,3,10.4,7,13.7H49.1c-7.2,0-13,6.6-13,14.8v21.1
		c0,8.2,5.8,14.9,13,14.9h191.4c7.2,0,13.5-6.7,13.5-14.9v-21.1c0-8.2-6.4-14.8-13.5-14.8h-18.6c4-3.3,7.5-7.9,7.5-13.7V603.1h29.5
		v10.6c0,16.6,12.2,30.4,26.9,30.4h36.9c14.6,0,26.3-13.8,26.3-30.4v-10.6h34.4v100.2c0,5.7,2.1,10.4,6.1,13.7h-18.6
		c-7.2,0-13.7,6.6-13.7,14.8v21.1c0,8.2,6.6,14.9,13.7,14.9h191.4c7.2,0,13.7-6.7,13.7-14.9v-21.1
		C576,723.6,569.5,716.9,562.3,716.9z"/>
</g>
</svg>
