<?xml version="1.0" encoding="utf-8"?>
<!-- Generator: Adobe Illustrator 18.1.1, SVG Export Plug-In . SVG Version: 6.00 Build 0)  -->
<svg version="1.1" id="Layer_1" xmlns="http://www.w3.org/2000/svg" xmlns:xlink="http://www.w3.org/1999/xlink" x="0px" y="0px"
	 viewBox="0 275.8 612 516.2" enable-background="new 0 275.8 612 516.2" xml:space="preserve">
<g id="Layer_4" display="none">
	<path display="inline" d="M585.8,390.7H26.2C11.7,390.7,0,402.4,0,416.9v388.3c0,14.5,11.7,26.2,26.2,26.2h243.9l-6.4,27.9h-59.5
		c-10.3,0-20,5-26,13.4l-15.8,22.1c-3.1,4.3,0,10.3,5.3,10.3h276.5c5.2,0,8.4-5.8,5.4-10.2l-14.7-21.7c-6-8.8-15.8-14-26.4-14h-59.9
		l-6.1-27.9h243.2c14.5,0,26.2-11.7,26.2-26.2V416.9C612,402.4,600.3,390.7,585.8,390.7z"/>
	<path display="inline" d="M248.2,391.5H32c-17.7,0-32,14.3-32,32v449.6c0,17.7,14.3,32,32,32h216.1c17.7,0,32-14.3,32-32V423.5
		C280.2,405.8,265.9,391.5,248.2,391.5z M140.1,877.9c-11.6,0-20.9-9.3-20.9-20.9c0-11.6,9.3-20.9,20.9-20.9S161,845.4,161,857
		C161.1,868.5,151.6,877.9,140.1,877.9z M255.1,813.4H24.8c-1.2,0-2.3-1.2-2.3-2.5c0-1.2,1-2.5,2.3-2.5h230.4c1.2,0,2.3,1.2,2.3,2.5
		S256.4,813.4,255.1,813.4z"/>
</g>
<g id="Layer_5" display="none">
	<path display="inline" d="M517.3,864.6l-65.1-329.8c-3.9-20.1-21.4-34.4-41.8-34.4h-53.2c-2.7-57.3-49.9-111-107.8-111
		s-105.2,53.7-107.9,111H99.1c-20.8,0-38.6,14.9-42,35.5L0.2,865.5c-3.5,20.8,12.5,39.7,33.6,39.7h449.9
		C505.2,905.2,521.3,885.7,517.3,864.6z M249.4,415.4c43.6,0,79.1,42.2,81.8,85H167.5C170.2,457.6,205.8,415.4,249.4,415.4z
		 M156.5,611.1c-11.3,0-20.5-9.2-20.5-20.5s9.2-20.5,20.5-20.5s20.5,9.2,20.5,20.5C177,602,167.8,611.1,156.5,611.1z M341.6,611.1
		c-11.3,0-20.5-9.2-20.5-20.5s9.2-20.5,20.5-20.5s20.5,9.2,20.5,20.5C362.1,602,352.9,611.1,341.6,611.1z"/>
	<path display="inline" d="M526.2,854.4h-15.3c4-3.3,6.9-7.9,6.9-13.7c0,0-0.2-185.4-0.2-185.7c0-34.9-16.5-65.5-41.5-82.5l-0.2-0.1
		v-67.5c0-23.2-12-43.1-29.4-51.9h-0.1v-36.2l0.4,0.2h6.5c6.6,0,12-6.1,12-13.8c-0.1-7.5-5.8-13.3-12.4-13.3h-84.4
		c-6.6,0-12,6.1-12,13.8c0.1,7.5,5.8,13.3,12.4,13.3h7.1l0.7-0.2v27.7h-0.3c-17,7.6-29.2,26.7-29.2,48.7c0,4.1,0.1,12.1,0.1,12.1
		v122.1H313V613c0-16.6-11.7-29.8-26.3-29.8h-36.9c-14.6,0-26.9,13.1-26.9,29.8v14.4h-29.5c0,0-0.1-130.1-0.1-134.2
		c0-22-13.6-41-30.6-48.6l-0.4-0.2v-27.6l0.9,0.2h7.1c6.6,0,12.3-5.7,12.4-13.3c0.1-7.6-5.3-13.8-12-13.8H86.4
		c-6.6,0-12.3,5.7-12.4,13.3c-0.1,7.6,5.3,13.8,12,13.8h6.5l0.2-0.2v36.1h-0.1c-17.6,8.9-29.5,28.8-29.5,52v67.5l0,0
		C38,589.5,21.6,620.1,21.6,655c0,0.4-0.3,185.7-0.3,185.7c0,5.7,3,10.4,7,13.7H13c-7.2,0-13,6.6-13,14.8v21.1
		c0,8.2,5.8,14.9,13,14.9h191.4c7.2,0,13.5-6.7,13.5-14.9v-21.1c0-8.2-6.4-14.8-13.5-14.8h-18.6c4-3.3,7.5-7.9,7.5-13.7V740.5h29.5
		v10.6c0,16.6,12.2,30.4,26.9,30.4h36.9c14.6,0,26.3-13.8,26.3-30.4v-10.6h34.4v100.2c0,5.7,2.1,10.4,6.1,13.7h-18.6
		c-7.2,0-13.7,6.6-13.7,14.8v21.1c0,8.2,6.6,14.9,13.7,14.9h191.4c7.2,0,13.7-6.7,13.7-14.9v-21.1
		C539.9,861,533.4,854.4,526.2,854.4z"/>
</g>
<linearGradient id="SVGID_1_" gradientUnits="userSpaceOnUse" x1="0.9848" y1="0.3789" x2="0.9848" y2="0.3889" gradientTransform="matrix(310.6699 0 0 516.2265 0 389.925)">
	<stop  offset="0" style="stop-color:#94C6F6"/>
	<stop  offset="1" style="stop-color:#57A6F3"/>
</linearGradient>
<path fill="url(#SVGID_1_)" d="M387.5,397.9h-61.2c24.7-8.4,42.4-31.8,42.4-59.3c0-34.7-28.1-62.8-62.7-62.8
	c-34.7,0-62.7,28.1-62.7,62.8c0,27.5,17.8,50.9,42.4,59.3h-61.4c-40.7,0-73.8,23.7-73.8,55.1v126.2c0,13.1,10.7,23.8,23.8,23.8
	s23.8-10.7,23.8-23.8V444.6h27v254l-0.4,59v0.2c0,18.8,16.1,34.2,35.1,34.2s33.4-15.3,33.4-34.2c0-2.5,0-151,0-151H306h12.7
	c0,0,0,148.5,0,151c0,18.9,14.5,34.2,33.4,34.2s35.1-15.4,35.1-34.2c0-0.1,0-0.2,0-0.2l-0.4-59v-254h27v134.5
	c0,13.1,10.7,23.8,23.8,23.8s23.8-10.7,23.8-23.8V453C461.3,421.6,428.2,397.9,387.5,397.9z"/>
</svg>
