<?xml version="1.0" encoding="utf-8"?>
<!-- Generator: Adobe Illustrator 18.1.1, SVG Export Plug-In . SVG Version: 6.00 Build 0)  -->
<svg version="1.1" id="Layer_1" xmlns="http://www.w3.org/2000/svg" xmlns:xlink="http://www.w3.org/1999/xlink" x="0px" y="0px"
	 viewBox="0 0 150 150" enable-background="new 0 0 150 150" xml:space="preserve">
<g>
	
		<image overflow="visible" opacity="0.75" width="590" height="590" xlink:href="BFC8B6339AD39AA5.png"  transform="matrix(0.24 0 0 0.24 3.2668 -0.3968)">
	</image>
	<g>
		<path fill="#FFFFFF" d="M74.1,33.6c-19.2,0-34.8,15.6-34.8,34.8c0,5.8,2.5,12.3,2.5,12.3c0.8,2.1,1.2,5.5,0.9,7.7l-0.9,6.8
			c-0.3,2.2,1.3,3.8,3.5,3.7l6.6-0.5c2.2-0.2,5.6,0.4,7.6,1.3c0,0,7.9,3.5,14.5,3.5c19.2,0,34.8-15.6,34.8-34.8S93.3,33.6,74.1,33.6
			z"/>
	</g>
</g>
</svg>
